<svg width="133" height="24" viewBox="0 0 133 24" fill="none" xmlns="http://www.w3.org/2000/svg">
<path d="M21.5636 19.3103C19.4339 15.6683 15.7302 13.8473 12.0264 13.8473C8.32274 13.8473 4.61904 15.6683 2.48926 19.3103C4.68925 22.1615 8.14136 24 12.0264 24C15.9115 24 19.3666 22.1615 21.5636 19.3103Z" fill="white"/>
<path d="M3.47552 9.5107C6.07338 8.0749 9.03108 7.31615 12.0297 7.31615C15.0284 7.31615 17.9832 8.0749 20.584 9.5107C21.8449 10.2082 23.0092 11.0632 24.0595 12.0467C24.0595 12.0321 24.0595 12.0146 24.0595 12C24.0595 5.37257 18.6736 0 12.0297 0C5.38589 0 0 5.37257 0 12C0 12.0146 0 12.0321 0 12.0467C1.05026 11.0632 2.21462 10.2082 3.47552 9.5107Z" fill="white"/>
<path d="M39.0409 4.51227L33.1226 19.4101H35.6882L37.1247 16.057C38.1779 15.6952 39.31 15.4996 40.4861 15.4996C41.5949 15.4996 42.6627 15.6747 43.6632 15.9957L45.126 19.4072H47.8467L41.9401 4.50935H39.0409V4.51227ZM42.6042 13.2876C41.9137 13.1738 41.2058 13.1125 40.4861 13.1125C39.6991 13.1125 38.9326 13.1825 38.1866 13.3197L38.2744 13.0891L40.4071 7.5648L42.531 13.0891L42.6042 13.2876Z" fill="white"/>
<path d="M53.6745 11.3177L60.4646 4.51228H63.8494L56.6907 11.6212L64.2268 19.3693H60.801L53.6745 12.1757V19.3693H51.0327V4.51228H53.6745V11.3177Z" fill="white"/>
<path d="M70.2448 11.3177L77.0349 4.51228H80.4197L73.261 11.6212L80.7971 19.3693H77.3714L70.2448 12.1757V19.3693H67.603V4.51228H70.2448V11.3177Z" fill="white"/>
<path d="M90.0767 4.35407C91.5921 4.35407 92.9408 4.65174 94.1227 5.24123C95.3046 5.83365 96.232 6.69746 96.9107 7.82976C97.5894 8.96205 97.9258 10.2782 97.9258 11.7753C97.9258 13.2957 97.5953 14.641 96.9312 15.8171C96.2671 16.9903 95.3338 17.9037 94.1314 18.5516C92.9291 19.1994 91.5482 19.5233 89.9918 19.5233C88.965 19.5233 87.9908 19.3658 87.0692 19.0477C86.1477 18.7296 85.3198 18.2685 84.5913 17.6586C83.8599 17.0486 83.2807 16.2549 82.8506 15.2801C82.4206 14.3054 82.207 13.2023 82.207 11.9767C82.207 10.4504 82.5435 9.10796 83.2134 7.94649C83.8834 6.78501 84.8137 5.89785 86.0014 5.2821C87.1863 4.66342 88.5466 4.35407 90.0767 4.35407ZM91.4546 6.95427C90.969 6.8317 90.4745 6.77042 89.9714 6.77042C89.4682 6.77042 88.9796 6.8317 88.5027 6.95427C88.0288 7.07684 87.5724 7.26944 87.1336 7.52917C86.6977 7.79182 86.3145 8.11283 85.9868 8.49513C85.6591 8.87742 85.3958 9.35019 85.1998 9.9105C85.0038 10.4708 84.9073 11.0895 84.9073 11.7665C84.9073 13.3774 85.4075 14.6702 86.4051 15.6449C87.4057 16.6196 88.6519 17.1099 90.1469 17.1099C90.77 17.1099 91.3727 17.0078 91.9549 16.8064C92.537 16.6051 93.0783 16.3045 93.5756 15.9076C94.0729 15.5107 94.4708 14.9708 94.7692 14.2879C95.0705 13.6051 95.2197 12.8288 95.2197 11.9562C95.2197 11.2442 95.1144 10.5963 94.9038 10.0068C94.6931 9.41731 94.4152 8.92704 94.07 8.53891C93.7248 8.14786 93.3211 7.81808 92.8647 7.54668C92.4112 7.27236 91.9402 7.07392 91.4546 6.95427Z" fill="white"/>
<path d="M113.92 8.76715C113.92 9.23991 113.862 9.69225 113.747 10.1212C113.633 10.5502 113.449 10.9617 113.203 11.3615C112.955 11.7584 112.615 12.1144 112.188 12.4267C111.758 12.7419 111.249 12.9841 110.664 13.1592L115.161 19.3693H111.723L107.551 13.6086H105.027V19.3693H102.385V4.51228H108.724C109.037 4.51228 109.327 4.52104 109.59 4.53855C109.854 4.55606 110.17 4.59691 110.544 4.66403C110.919 4.73115 111.249 4.8187 111.539 4.9296C111.828 5.04049 112.13 5.20392 112.44 5.41988C112.75 5.63583 113.01 5.88971 113.215 6.17862C113.42 6.46753 113.59 6.83524 113.724 7.2759C113.856 7.71948 113.92 8.21851 113.92 8.76715ZM105.024 6.92863V11.1835H107.455C107.873 11.1835 108.245 11.1689 108.566 11.1426C108.888 11.1164 109.219 11.058 109.561 10.9705C109.903 10.8829 110.184 10.7633 110.404 10.6086C110.623 10.4568 110.804 10.2438 110.948 9.9724C111.091 9.701 111.161 9.37999 111.161 9.00937C111.161 7.62318 110.088 6.92863 107.943 6.92863H105.024Z" fill="white"/>
<path d="M124.528 4.51227C125.464 4.51227 126.327 4.58523 127.117 4.73115C127.907 4.87706 128.588 5.07551 129.162 5.32648C129.735 5.57745 130.244 5.88095 130.692 6.23698C131.139 6.59301 131.505 6.97239 131.792 7.37803C132.078 7.78368 132.315 8.22142 132.5 8.69418C132.684 9.16695 132.813 9.63387 132.889 10.0891C132.962 10.5444 133 11.0171 133 11.5045C133 12.1465 132.947 12.7652 132.842 13.3605C132.737 13.9559 132.552 14.5629 132.286 15.1786C132.02 15.7944 131.681 16.3488 131.265 16.842C130.85 17.3323 130.308 17.7759 129.641 18.1699C128.974 18.5638 128.211 18.8557 127.351 19.0424C126.912 19.1387 126.42 19.2146 125.882 19.2671C125.344 19.3197 124.902 19.3489 124.557 19.3547C124.212 19.3605 123.726 19.3664 123.106 19.3664H119.244V4.50935H124.528V4.51227ZM124.601 6.93737H121.886V16.9413H123.805C124.288 16.9413 124.686 16.9354 124.999 16.9208C125.312 16.9062 125.724 16.8595 126.236 16.7749C126.745 16.6903 127.181 16.5736 127.541 16.4247C127.901 16.2759 128.275 16.0483 128.661 15.7448C129.05 15.4413 129.372 15.0736 129.63 14.6416C130.104 13.8479 130.344 12.9169 130.344 11.8489C130.344 11.236 130.259 10.6699 130.086 10.1562C129.916 9.6397 129.688 9.2078 129.404 8.85469C129.121 8.50157 128.79 8.19515 128.41 7.92959C128.029 7.66402 127.643 7.45975 127.251 7.31383C126.859 7.16792 126.458 7.06578 126.046 7.01033C125.698 6.96363 125.215 6.93737 124.601 6.93737Z" fill="white"/>
</svg>
