<?xml version="1.0" encoding="utf-8"?>
<!-- Generator: Adobe Illustrator 24.2.0, SVG Export Plug-In . SVG Version: 6.00 Build 0)  -->
<svg version="1.1" id="Layer_1" xmlns="http://www.w3.org/2000/svg" xmlns:xlink="http://www.w3.org/1999/xlink" x="0px" y="0px"
	 viewBox="0 0 936.2 443.4" style="enable-background:new 0 0 936.2 443.4;" xml:space="preserve">
<style type="text/css">
	.st0{fill:#02679E;}
	.st1{fill:#C8332C;}
	.st2{fill-rule:evenodd;clip-rule:evenodd;fill:#02679D;}
</style>
<path class="st0" d="M356.1,169.9c6.6,4.3,12.6,8,18.4,12.1c18.3,12.6,33.4,28.7,48.5,44.8c10.6,11.2,21.8,21.8,33.8,31.5
	c9.1,7.4,19.6,8.5,30.5,6.2c15.6-3.3,29.2-11.5,43-19.2c12.8-7.2,25.6-14.5,38.4-21.6c2.6-1.5,4.3-2.6,2.8-6.1
	c-14.1-34.4-28-69-41.9-103.4c-0.2-0.6-0.6-1.2-1.5-3.2c-20.7,49-40.9,96.9-61.3,145.2c-9.2-7.7-18-15.2-27-22.5
	c-2.5-2.1-0.9-3.8-0.1-5.6c8.5-19.5,17.1-39,25.7-58.5c18.1-41.2,36.4-82.4,54.3-123.8c1.7-4,4.1-4.5,7.5-4.2
	c3.5,0.4,7.5-1.6,9.7,3.9c16.8,41.1,33.9,82,51,123c4.9,11.7,9.9,23.4,14.6,35.2c1.5,3.8,3.2,4.5,7.2,3.4c6.9-1.9,13.9-3.3,21-4.1
	c4.4-0.5,5.2-2.4,5.2-6.2c-0.2-22.6-0.2-45.2-0.2-67.8c-0.1-27.3-0.1-54.6-0.4-81.8c-0.1-4.6,1.4-5.8,5.8-5.5
	c8.1,0.4,16.2,0.6,24.2,0.4c4.3-0.1,5.4,1.1,5.4,5.4c-0.2,35.9-0.1,71.8-0.1,107.7c0,15.1,0.1,30.2-0.1,45.2
	c-0.1,4.1,1.4,5.8,5.4,6.9c31,8.8,59.9,22.4,87.1,39.8c30.5,19.5,59.7,16.9,87.4-6.6c1.1-0.9,1.9-2.8,4.4-2.1
	c-3.3,9.9-9.3,17.9-16.6,24.9c-21.9,21.3-48.5,26.2-77.6,21.2c-35.9-6.1-66.9-22.4-94.8-45.4c-14.3-11.8-30.5-19.3-49.5-19.4
	c-6.4,0-6.8,0.5-4.4,6.3c6.3,15.4,12.7,30.7,19.1,46.1c0.5,1.3,1,2.7,2.1,5.7c-12.2,0-23.7,0-35.1,0c-2.6,0-3.2-1.8-3.9-3.6
	c-5-12.6-10-25.3-15-37.9c-2.5-6.3-2.4-6.3-8.6-2.9c-18.1,9.9-34.9,22-52.4,32.7c-12.9,7.9-26.1,15.1-41,18.2
	c-26.8,5.6-50.6-1.7-71.9-18.3c-14.4-11.2-25.5-25.7-36.8-39.8c-11.2-14-22-28.3-36.7-39c-12.3-9-25.9-14.2-41.2-15.3
	c-3.8-0.3-4.6,0.9-4.6,4.3c0.1,14,0,28,0,42c0,17.2-0.1,34.5,0.1,51.7c0,3.6-0.6,5-4.6,4.9c-9.9-0.3-19.8-0.4-29.6,0
	c-4.6,0.2-5.2-1.6-5.1-5.6c1-27.6,0.8-55.3,0.9-82.9c0-5.4-1.6-5.4-5.6-3.2c-7.8,4.3-15.7,8.5-23.8,12.4c-4.2,2.1-4.4,4.4-2.7,8.5
	c9.3,22.1,18.2,44.3,27.5,66.3c1.4,3.4,1.4,4.5-2.8,4.4c-10.6-0.3-21.2-0.4-31.8-0.2c-4.3,0.1-6.2-1.3-7.7-5.4
	c-5.3-14.8-11.1-29.4-16.8-44.1c-2.3-6.1-2.4-5.9-8.2-2.3c-11.4,7.1-23,13.9-36,17.8c-7.1,2.2-14.4,2.5-21.7,0.9
	c-4.9-1.1-8.3-4.2-11.2-7.9c-2.3-2.9-2.5-6.6-1.1-9.7c1.5-3.1,4.5-4.7,8.3-5c5.4-0.4,10.3,1.1,15.2,2.7c6.8,2.2,13.1,1.6,19.2-1.7
	c8-4.3,16-8.8,24-13.2c2.6-1.4,3.3-3,2.1-6.1c-11-28.7-21.9-57.4-32.8-86.2c-0.4-1.2-0.8-2.8-2-2.9c-1.8-0.2-2,1.7-2.5,2.9
	c-15.5,39.5-30.9,79-46.4,118.4c-5,12.7-10,25.3-14.8,38c-1.1,3-2.6,4.1-5.8,4c-11.5-0.2-23-0.4-34.5-0.2c-4.6,0.1-5-1.2-3.2-5.1
	c14.2-31.3,28.2-62.7,42.2-94.1c19.4-43.3,38.7-86.6,58.1-129.9c1.5-3.4,2.2-7.3,7.7-7.3c5,0,7.5,1.2,9.5,6
	c17.9,43.9,36,87.7,54,131.6c3.8,9.1,3.8,9.2,12.6,4.5c8.7-4.6,17.3-9.4,26.7-12.6c3.3-1.1,4.1-2.9,4.2-6.3
	c0.2-37.3,0.6-74.6,0.7-112c0-5.1,1.6-6.7,6.5-6.9c26.5-1.1,53.1-2.7,79.6-0.1c14.5,1.4,28.7,4.5,41.8,11.2
	c16.3,8.3,26.3,21.2,28.7,39.6c1.9,14.2,0.9,28.3-4.2,41.8c-6.2,16.4-18.8,26.2-35,31.6c-2.4,0.8-4.8,1.4-7.2,2.1
	C357.8,168.8,357.4,169.2,356.1,169.9z M285.8,117.2c0,11.5,0,23,0,34.4c0,2.3-0.4,4.7,3.3,4.7c15.9-0.3,31.9,1.1,47.7-2.1
	c20.8-4.2,31.2-15.1,32-36.2c0.8-19.8-6.4-33.3-28.6-38.4c-16.8-3.8-33.9-2.1-50.9-2c-3.3,0-3.6,1.9-3.6,4.6
	C285.8,93.9,285.8,105.6,285.8,117.2z"/>
<path class="st1" d="M193.5,387.6c0,3.8-0.4,7.7,0.1,11.3c1,6.3-2.2,8.7-7.6,10.6c-12.1,4.1-24.2,6.7-36.9,3.9
	c-20.4-4.5-32.2-18.4-33.3-39.4c-0.8-14.3,1.6-27.6,12.6-38c11.7-11.1,26-12.8,41.1-11.2c6.5,0.6,12.5,2.7,18.6,5.1
	c3.9,1.4,6,3.5,5.2,7.9c-0.2,1.2,0.1,2.5,0,3.8c-0.1,1.5,0.8,3.6-1.1,4.3c-1.4,0.5-2.6-1-3.8-1.7c-8.2-5.9-17.4-9.1-27.6-9.1
	c-19.1-0.1-31,10.7-32.3,29.8c-0.5,8.1,0.1,16.2,4,23.5c6.3,12,17.3,15.4,29.7,15.4c4.6,0,9.3-1.2,13.8-2.1c3.6-0.6,5.7-2.4,5.3-6.6
	c-0.4-3.8-0.1-7.6-0.1-11.3c0.1-3.1-1.4-4.5-4.5-4.5c-5.1,0-10-0.3-15.1,0.1c-4.4,0.3-3.9-2.5-3.9-5.2c0-2.8-0.6-5.8,4-5.7
	c9.4,0.2,18.7,0.2,28.1,0c2.7,0,3.3,1,3.3,3.5C193.4,377.1,193.5,382.3,193.5,387.6L193.5,387.6z"/>
<path class="st1" d="M370,368.2c-0.1-4.7,0.4-10.1,2-15.5c5.5-18.8,18.3-28.5,37.9-28.5c20.9,0,34.3,10.3,38.9,30.5
	c3.6,15.7,2.7,31-7,44.7c-8.9,12.6-21.9,16.6-36.4,14.7C381.8,411,370,395.5,370,368.2z M382.9,369.8c-0.4,4.9,0.4,10.2,2,15.4
	c3.3,10.8,12.5,17.9,24.3,18.6c10.7,0.6,20.8-5.3,25-15.2c5.3-12.6,5.3-25.6,0.3-38.2c-7.2-18.2-33.2-21.6-45.2-6
	C383.7,351.7,382.5,360.4,382.9,369.8z"/>
<path class="st1" d="M323.2,412.5c-4.6,0-7.7-0.3-10.7,0.1c-3.6,0.4-6-1.1-8.2-3.8c-6.9-8.4-14.1-16.7-21-25.1
	c-3.9-4.8-11.9-7.1-17.7-5.1c-2.7,0.9-2.2,2.9-2.2,4.8c-0.1,8.2-0.3,16.5,0.1,24.7c0.3,6.1-3.8,4.2-6.8,4.4c-3,0.2-6,0.8-6-4.2
	c0.2-26.2,0.1-52.4,0.1-78.5c0-2-0.1-4.2,2.8-4.1c12,0.2,24.1-1,35.9,1.6c9,1.9,15.8,7,17.9,16.4c2.5,11.1-0.7,20.6-9.9,27.6
	c-6.2,4.7-6.2,4.6-0.8,10.6C305.2,391.5,313.7,401.4,323.2,412.5z M263.3,352.1c0,4.1,0,8.2,0,12.4c0,2,0.3,3.6,2.8,3.7
	c6.6,0,13.3,0.5,19.7-1.7c6.6-2.3,10.3-9.3,9.4-17.5c-0.8-7.1-4.7-10.9-12.3-11.9c-2.8-0.4-5.7-0.9-8.6-0.8
	c-12.6,0.2-10.9-2.2-11.1,11.1C263.3,348.8,263.3,350.5,263.3,352.1z"/>
<path class="st1" d="M574.7,358c0,8.4,0.2,16.9,0,25.3c-0.7,23.6-17.4,33.3-38,30.8c-19.2-2.4-28.1-13.4-28.5-33.8
	c-0.3-16.7,0.1-33.4-0.2-50c-0.1-5.7,3.5-4.6,6.8-4.8c3.6-0.2,6.1,0,6,4.9c-0.3,17.4-0.1,34.8,0,52.2c0,7.7,2,14.7,9.5,18.5
	c8.1,4.1,16.5,3.9,24.2-0.6c6.9-4,8.2-11.5,8.3-18.8c0.3-16.9,0.3-33.7,0-50.6c-0.1-5.2,1.9-5.7,6.2-5.7s6.6,0.5,6.3,5.7
	C574.9,340.1,574.9,358,574.7,358z"/>
<path class="st1" d="M637.5,369.4c0-12.7,0.1-25.4-0.1-38.2c-0.1-4.3,1.3-5.9,5.8-5.8c10,0.4,20.1-0.7,30,1.3
	c14.2,2.9,22.7,13.7,21.5,26.5c-1.4,15.1-12.1,26-26.5,26.8c-4.5,0.3-9,0.4-13.4,0.4c-3.6,0-5.1,1.4-5,5.1c0.2,7.5,0,15.1,0.1,22.6
	c0.1,3.1-0.6,4.5-4.1,4.4c-10.2-0.3-8.3,0.6-8.4-8.3C637.4,392.7,637.5,381,637.5,369.4L637.5,369.4z M650,352.9L650,352.9
	c0,4.5,0.1,9,0,13.4c0,1.9,0.1,3.5,2.8,3.4c6.3-0.2,12.6,0.4,18.7-1.6c6.6-2.1,10.9-8.9,10.6-16.4c-0.3-7.6-4.5-12.9-12-14.4
	c-5.5-1.2-11-1.3-16.6-1.3c-2.9,0-3.7,1.2-3.6,3.9C650.1,344.3,650,348.6,650,352.9z"/>
<path class="st2" d="M864.2,23.3c22.8,0.1,41.1,18.7,41,41.7c-0.1,22.9-18.7,41.7-41.3,41.6c-22.9-0.1-41.6-19-41.4-42.1
	C822.9,41.5,841.4,23.2,864.2,23.3z M872.6,67.6c5.8,4.7,9,10.7,12.4,16.5c1.7,2.9,2.3,3.5,4.5,0.5c9.8-13.3,8.6-31.3-3.2-43.1
	c-11.1-11.1-30.4-12.4-42-2.9c-12.8,10.6-16,29.2-7.7,43.2c11,18.6,36,18.9,47.4,7.5c-4.7,1.3-5.6-1.9-7.2-4.3c-2-3.1-4-6.1-5.8-9.3
	c-3.4-6.2-8.7-8.3-15.5-7.9c-2.8,0.1-3.8,1.1-3.7,3.9c0.1,4.9,0,9.9,0.1,14.9c0,2.5-1.4,3-3.6,2.9c-2-0.1-3.4-0.3-3.4-3
	C845,72,845,57.5,845,43c0-1.6,0.2-3.2,2.2-3.1c9.4,0.5,18.9-1.3,28.2,1c5.5,1.4,7.9,5.7,8.8,10.8c0.9,4.9-1.1,9.1-4.9,12.1
	C877.6,65.4,875.3,66.2,872.6,67.6z M862.4,46.5c0-0.1,0-0.1,0-0.2c-2.2,0-4.4,0.2-6.5,0c-3.1-0.3-4.3,1-4,4.1
	c0.2,2.7,0.1,5.5,0,8.2c0,1.8,0.3,3.3,2.6,3.2c5.6-0.2,11.2,0.5,16.7-0.8c3.9-0.9,5.8-3.5,5.7-7.5c-0.2-4.1-2.6-6.4-6.4-6.9
	C867.9,46.2,865.1,46.5,862.4,46.5z"/>
</svg>
